<svg width="48" height="48" viewBox="0 0 48 48" fill="none" xmlns="http://www.w3.org/2000/svg">
<rect width="48" height="48" rx="24" fill="#4A8C5C" fill-opacity="0.5"/>
<g clip-path="url(#clip0_5_26)">
<path d="M21.3005 13.5C23.732 13.5 25.9845 14.1445 27.828 15.241L28.0545 15.3795C33.578 15.5285 38 19.343 38 24.026C38 26.6 36.663 28.9135 34.5415 30.4985L34.302 30.6685L34.033 30.8525C33.288 31.4025 33.749 32.56 34.439 33.4855L34.567 33.6505C34.6103 33.7048 34.6542 33.758 34.6985 33.81L34.8325 33.962L34.951 34.09L35.04 34.1925C35.3075 34.515 35.2815 34.6535 34.963 34.62L34.859 34.605C34.7953 34.5936 34.7321 34.5798 34.6695 34.5635C33.9884 34.3947 33.3269 34.1547 32.696 33.8475L32.46 33.728C32.384 33.688 32.3102 33.6483 32.2385 33.609L32.031 33.4915L31.835 33.3755L31.072 32.907L30.9215 32.82L30.775 32.7415C30.389 32.5435 30.035 32.445 29.609 32.5265L29.5245 32.5445C28.9268 32.6331 28.3233 32.6776 27.719 32.6775C26.4775 32.6775 25.288 32.4925 24.1865 32.153L24.1955 32.151C22.6997 32.4788 21.1593 32.5506 19.6395 32.3635L19.312 32.3185C18.8595 32.211 18.4845 32.2835 18.0905 32.4635L17.9415 32.535L17.7895 32.6165L17.6335 32.7055L17.2185 32.959L16.946 33.127L16.652 33.304L16.442 33.425L16.2195 33.548L16.103 33.6095L15.8595 33.733C15.1142 34.0974 14.33 34.3764 13.522 34.5645L13.401 34.5865C12.9905 34.648 12.942 34.498 13.258 34.12L13.353 34.0115L13.4075 33.953C13.4525 33.905 13.4975 33.856 13.5425 33.806L13.675 33.652L13.806 33.4915L13.9325 33.3255L14.055 33.155L14.171 32.981C14.19 32.952 14.2085 32.9227 14.2265 32.893L14.332 32.7155C14.8225 31.853 15.014 30.9465 14.36 30.4655L13.8835 30.1355L13.8015 30.0765C11.47 28.34 10 25.8035 10 22.982C10 17.746 15.0585 13.5 21.3005 13.5ZM32.6015 22.982C32.6015 26.34 30.5215 29.291 27.383 30.9755L27.2265 31.058C27.9134 31.0875 28.6016 31.0545 29.2825 30.9595C29.9001 30.8261 30.5426 30.8659 31.139 31.0745C31.25 31.1125 31.4 31.18 31.5715 31.2655L31.7865 31.3755L32.133 31.5625C32.1795 30.82 32.496 30.1355 33.153 29.6095L33.2655 29.523L33.337 29.4705L33.395 29.4355L33.8 29.1535C35.639 27.792 36.6875 25.8885 36.6875 23.8775C36.6875 20.5945 33.8785 17.737 29.991 16.9205L29.961 16.891C31.609 18.5385 32.6015 20.6635 32.6015 22.982ZM21.3 15.1085C15.8475 15.1085 11.552 18.713 11.552 22.9725C11.552 25.172 12.692 27.254 14.6905 28.743L14.9195 28.905L15.1335 29.054L15.1935 29.09L15.2715 29.1475C16.0685 29.734 16.449 30.5205 16.5025 31.3775L16.733 31.251L16.955 31.1335L17.1625 31.028L17.3505 30.939C17.4388 30.899 17.5163 30.8673 17.583 30.844C18.2308 30.6157 18.9294 30.5723 19.6005 30.7185C20.1636 30.7986 20.7317 30.8385 21.3005 30.838C26.7525 30.838 31.048 27.233 31.048 22.973C31.048 18.713 26.752 15.1085 21.3 15.1085Z" fill="black"/>
</g>
<defs>
<clipPath id="clip0_5_26">
<rect width="28" height="28" fill="white" transform="translate(10 10)"/>
</clipPath>
</defs>
</svg>
