<svg width="24" height="24" viewBox="0 0 24 24" fill="none" xmlns="http://www.w3.org/2000/svg">
<g clip-path="url(#clip0_9_555)">
<path d="M11.608 7.155C11.3916 6.8703 11.1097 6.64207 10.7863 6.48973C10.4628 6.33739 10.1073 6.26544 9.74999 6.28C8.61099 6.28 7.68799 6.972 7.68799 7.827C7.68799 8.682 8.61099 9.375 9.74999 9.375C10.889 9.375 11.813 10.068 11.813 10.922C11.813 11.776 10.889 12.469 9.74999 12.469C9.39272 12.4836 9.03721 12.4116 8.71372 12.2593C8.39023 12.1069 8.10833 11.8787 7.89199 11.594M9.74999 12.469V13.5M9.74999 6.28V5.25" stroke="#C4714A" stroke-width="1.5" stroke-linecap="round" stroke-linejoin="round"/>
<path d="M16.2198 16.2198C14.5203 17.9193 12.2154 18.874 9.812 18.874C7.40861 18.874 5.10365 17.9193 3.4042 16.2198C1.70474 14.5203 0.75 12.2154 0.75 9.812C0.75 7.40861 1.70474 5.10365 3.4042 3.4042C5.10365 1.70474 7.40861 0.75 9.812 0.75C12.2154 0.75 14.5203 1.70474 16.2198 3.4042C17.9193 5.10365 18.874 7.40861 18.874 9.812C18.874 12.2154 17.9193 14.5203 16.2198 16.2198ZM16.2198 16.2198L23.25 23.25" stroke="#C4714A" stroke-width="1.5" stroke-linecap="round" stroke-linejoin="round"/>
</g>
<defs>
<clipPath id="clip0_9_555">
<rect width="24" height="24" fill="white"/>
</clipPath>
</defs>
</svg>
