<svg width="40" height="40" viewBox="0 0 40 40" fill="none" xmlns="http://www.w3.org/2000/svg">
<rect width="40" height="40" rx="20" fill="#F7F2EC"/>
<path d="M28.448 26.837C28.85 28.4455 28.85 29.25 28.85 29.25H11.15C11.15 29.25 11.15 28.445 11.552 26.837C12.0395 24.888 13.1615 23.6195 15.575 23.6195H24.425C26.8385 23.6195 27.9605 24.888 28.448 26.837Z" stroke="#C4714A" stroke-width="0.5" stroke-linecap="round" stroke-linejoin="round"/>
<path d="M16.782 19.598C16.194 18.7165 15.9775 17.074 15.9775 15.576C15.9775 13.7035 16.3795 10.75 20 10.75C23.6205 10.75 24.023 14.4525 24.023 15.576C24.023 17.074 23.8055 18.7165 23.218 19.598C22.4685 20.7215 21.245 21.2065 20 21.2065C18.8 21.2065 17.53 20.721 16.782 19.598Z" stroke="#C4714A" stroke-width="0.5" stroke-linecap="round" stroke-linejoin="round"/>
</svg>
