<svg width="16" height="16" viewBox="0 0 16 16" fill="none" xmlns="http://www.w3.org/2000/svg">
<g clip-path="url(#clip0_10_42)">
<path d="M3.65401 1.32781C3.59498 1.25187 3.52046 1.18936 3.43542 1.14443C3.35037 1.0995 3.25673 1.07319 3.16073 1.06723C3.06473 1.06127 2.96856 1.07581 2.87861 1.10987C2.78866 1.14394 2.70698 1.19675 2.63901 1.26481L1.60501 2.29981C1.12201 2.78381 0.944013 3.46881 1.15501 4.06981C2.03174 6.55692 3.45617 8.81522 5.32301 10.6778C7.18561 12.5447 9.4439 13.9691 11.931 14.8458C12.532 15.0568 13.217 14.8788 13.701 14.3958L14.735 13.3618C14.8031 13.2938 14.8559 13.2122 14.8899 13.1222C14.924 13.0323 14.9385 12.9361 14.9326 12.8401C14.9266 12.7441 14.9003 12.6505 14.8554 12.5654C14.8105 12.4804 14.748 12.4058 14.672 12.3468L12.365 10.5528C12.2838 10.49 12.1895 10.4464 12.089 10.4253C11.9886 10.4042 11.8846 10.406 11.785 10.4308L9.59501 10.9778C9.30267 11.0504 8.99654 11.0462 8.70626 10.9658C8.41597 10.8854 8.15135 10.7315 7.93801 10.5188L5.48201 8.06181C5.26919 7.84857 5.11503 7.584 5.03444 7.29371C4.95386 7.00342 4.94957 6.69724 5.02201 6.40481L5.57001 4.21481C5.59477 4.11519 5.59666 4.01126 5.57553 3.91082C5.5544 3.81037 5.51081 3.71601 5.44801 3.63481L3.65401 1.32781ZM1.88401 0.510807C2.05901 0.335756 2.26924 0.199937 2.50075 0.112368C2.73226 0.0247988 2.97976 -0.0125165 3.22679 0.00289975C3.47383 0.018316 3.71477 0.0861112 3.93359 0.201783C4.15242 0.317456 4.34414 0.478358 4.49601 0.673807L6.29001 2.97981C6.61901 3.40281 6.73501 3.95381 6.60501 4.47381L6.05801 6.66381C6.02993 6.77725 6.03156 6.89601 6.06273 7.00864C6.09391 7.12127 6.15359 7.22396 6.23601 7.30681L8.69301 9.76381C8.77596 9.84639 8.87882 9.90617 8.99164 9.93736C9.10447 9.96854 9.22343 9.97007 9.33701 9.94181L11.526 9.39481C11.7827 9.33102 12.0504 9.32622 12.3092 9.38078C12.5679 9.43534 12.811 9.54783 13.02 9.70981L15.326 11.5038C16.155 12.1488 16.231 13.3738 15.489 14.1148L14.455 15.1488C13.715 15.8888 12.609 16.2138 11.578 15.8508C8.93869 14.9234 6.54255 13.4126 4.56801 11.4308C2.58639 9.45656 1.07556 7.06078 0.148013 4.42181C-0.213987 3.39181 0.111013 2.28481 0.851013 1.54481L1.88401 0.510807Z" fill="white"/>
</g>
<defs>
<clipPath id="clip0_10_42">
<rect width="16" height="16" fill="white"/>
</clipPath>
</defs>
</svg>
