<svg width="48" height="48" viewBox="0 0 48 48" fill="none" xmlns="http://www.w3.org/2000/svg">
<rect width="48" height="48" rx="24" fill="#4A8C5C" fill-opacity="0.5"/>
<path d="M24.002 18.448C25.3544 17.5023 26.9167 16.9003 28.554 16.694C29.7406 16.4576 30.9494 16.3516 32.159 16.378C32.3077 16.3778 32.4548 16.4081 32.5914 16.467C32.7279 16.5258 32.851 16.612 32.953 16.7202C33.055 16.8284 33.1338 16.9563 33.1845 17.0961C33.2353 17.2359 33.2569 17.3845 33.248 17.533V28.358C33.2573 28.5119 33.2339 28.6662 33.1792 28.8104C33.1245 28.9546 33.0398 29.0856 32.9307 29.1947C32.8217 29.3038 32.6907 29.3885 32.5464 29.4432C32.4022 29.4979 32.248 29.5213 32.094 29.512C30.9053 29.4975 29.7185 29.6109 28.554 29.85C26.9149 30.0626 25.3524 30.6718 24.002 31.625C22.647 30.688 21.085 30.094 19.45 29.894C18.2855 29.6549 17.0987 29.5415 15.91 29.556C15.752 29.5661 15.5937 29.5416 15.4461 29.4844C15.2986 29.4271 15.1652 29.3384 15.0554 29.2244C14.9456 29.1104 14.8619 28.9738 14.8102 28.8242C14.7585 28.6745 14.74 28.5155 14.756 28.358L14.755 17.468C14.755 17.1789 14.8698 16.9016 15.0743 16.6972C15.2787 16.4928 15.5559 16.378 15.845 16.378C17.0546 16.3516 18.2634 16.4576 19.45 16.694C21.0873 16.9003 22.6496 17.5023 24.002 18.448ZM24.002 31.625V18.448M17.621 20.234H18.873M17.621 26.245H19.455M17.78 23.24H21.13" stroke="black" stroke-width="1.5" stroke-linecap="round" stroke-linejoin="round"/>
</svg>
